<?xml version="1.0" encoding="UTF-8"?>
<svg width="22px" height="12px" viewBox="0 0 22 12" version="1.1" xmlns="http://www.w3.org/2000/svg" xmlns:xlink="http://www.w3.org/1999/xlink">
    <!-- Generator: Sketch 45.1 (43504) - http://www.bohemiancoding.com/sketch -->
    <title>code-18</title>
    <desc>Created with Sketch.</desc>
    <defs></defs>
    <g id="Page-1" stroke="none" stroke-width="1" fill="none" fill-rule="evenodd">
        <g id="code-18" transform="translate(0.000000, -3.000000)" fill="#6A7070">
            <path d="M6.70526173,14.7060005 C7.09874655,14.3160005 7.09674408,13.6830005 6.70726419,13.2920005 L2.41597679,8.99900048 L6.70726419,4.70600048 C7.09774531,4.31500048 7.09774531,3.68300048 6.70626296,3.29200048 C6.31377937,2.90200048 5.68099971,2.90300048 5.28951735,3.29300048 L0.292360225,8.29200048 C0.0971196636,8.48800048 -3.12638804e-13,8.74300048 -3.12638804e-13,8.99900048 C-3.12638804e-13,9.25500048 0.0971196636,9.51000048 0.292360225,9.70600048 L5.28951735,14.7050005 C5.68099971,15.0960005 6.31377937,15.0960005 6.70526173,14.7060005 Z" id="icon"></path>
            <path d="M15.2947383,14.7060005 C14.9012535,14.3160005 14.9032559,13.6830005 15.2927358,13.2920005 L19.5840232,8.99900048 L15.2927358,4.70600048 C14.9022547,4.31500048 14.9022547,3.68300048 15.293737,3.29200048 C15.6862206,2.90200048 16.3190003,2.90300048 16.7104826,3.29300048 L21.7076398,8.29200048 C21.9028803,8.48800048 22,8.74300048 22,8.99900048 C22,9.25500048 21.9028803,9.51000048 21.7076398,9.70600048 L16.7104826,14.7050005 C16.3190003,15.0960005 15.6862206,15.0960005 15.2947383,14.7060005 Z" id="icon"></path>
            <path d="M13.3718,3.073 C12.8568,2.865 12.2768,3.117 12.0718,3.631 L8.0718,13.629 C7.8668,14.141 8.1158,14.723 8.6288,14.928 C8.7508,14.977 8.8758,15 8.9998,15 C9.3968,15 9.7718,14.762 9.9288,14.371 L13.9288,4.373 C14.1338,3.86 13.8848,3.278 13.3718,3.073" id="icon"></path>
        </g>
    </g>
</svg>